<svg width="62" height="62" viewBox="0 0 62 62" fill="none" xmlns="http://www.w3.org/2000/svg">
<path d="M26 1.88675C29.094 0.100423 32.906 0.100423 36 1.88675L53.7128 12.1132C56.8068 13.8996 58.7128 17.2008 58.7128 20.7735V41.2265C58.7128 44.7992 56.8068 48.1004 53.7128 49.8868L36 60.1132C32.906 61.8996 29.094 61.8996 26 60.1132L8.28719 49.8868C5.19318 48.1004 3.28719 44.7992 3.28719 41.2265V20.7735C3.28719 17.2008 5.19318 13.8996 8.28719 12.1132L26 1.88675Z" fill="#3C3F4D"/>
<g clip-path="url(#clip0_1729_70769)">
<path d="M27.2026 25.2191L29.3135 20.8245L30.2775 18.8172L30.1222 18.4931C29.9779 18.1918 29.6733 18 29.3388 18H23.1892C22.8904 18 22.6129 18.1536 22.4533 18.4065C22.2947 18.6594 22.2768 18.976 22.4058 19.245L26.2394 27.2262L27.2026 25.2191Z" fill="white" fill-opacity="0.33"/>
<path d="M39.5491 18.4065C39.3895 18.1536 39.112 18 38.8132 18H32.6644C32.3301 18 32.0253 18.1918 31.8811 18.4931L27.1326 28.3805C27.1292 28.3881 27.1283 28.3958 27.1249 28.4034C27.1174 28.4204 27.1139 28.4391 27.1071 28.4569C27.0766 28.5394 27.0588 28.6267 27.0545 28.7191C27.0536 28.7319 27.0469 28.7429 27.0469 28.7566V29.2046C28.2274 28.5867 29.5675 28.232 30.9899 28.232C32.4133 28.232 33.7525 28.5868 34.9339 29.2055V28.9543L39.5966 19.2451C39.7256 18.976 39.7078 18.6595 39.5491 18.4065Z" fill="white" fill-opacity="0.33"/>
<path d="M30.9905 29.5356C26.9957 29.5356 23.7578 32.7734 23.7578 36.7683C23.7578 40.7623 26.9957 44 30.9905 44C34.9845 44 38.2224 40.7623 38.2224 36.7683C38.2224 32.7734 34.9845 29.5356 30.9905 29.5356ZM35.2893 35.5055L33.3585 37.3887C33.2982 37.448 33.2701 37.533 33.2846 37.6162L33.7404 40.2752C33.7565 40.371 33.7165 40.4686 33.6377 40.5263C33.5588 40.584 33.4535 40.5909 33.3678 40.5458L30.9796 39.2908C30.9049 39.2515 30.8149 39.2515 30.7402 39.2908L28.352 40.5458C28.2662 40.5909 28.161 40.584 28.0821 40.5263C28.0032 40.4686 27.9633 40.371 27.9795 40.2752L28.4353 37.6162C28.4496 37.533 28.4216 37.448 28.3614 37.3887L26.4306 35.5055C26.3602 35.4366 26.3356 35.3348 26.3652 35.2423C26.3959 35.1488 26.4765 35.0811 26.5724 35.0675L29.2432 34.6796C29.3264 34.6677 29.3986 34.6151 29.4359 34.5387L30.6301 32.12C30.6734 32.0325 30.7625 31.9764 30.8601 31.9764C30.9577 31.9764 31.0466 32.0325 31.09 32.12L32.2842 34.5387C32.3215 34.6151 32.3936 34.6677 32.4769 34.6796L35.1477 35.0675C35.2436 35.0811 35.3243 35.1488 35.3548 35.2423C35.3843 35.3348 35.3596 35.4366 35.2893 35.5055Z" fill="white" fill-opacity="0.33"/>
</g>
<defs>
<clipPath id="clip0_1729_70769">
<rect width="26" height="26" fill="white" transform="translate(18 18)"/>
</clipPath>
</defs>
</svg>
