<svg width="24" height="24" viewBox="0 0 24 24" fill="none" xmlns="http://www.w3.org/2000/svg">
<rect width="24" height="24" rx="12" fill="#313D4F"/>
<path d="M10.81 14.1428C11.001 14.1428 11.0703 14.1627 11.1401 14.2001C11.21 14.2374 11.2648 14.2922 11.3021 14.3621C11.3395 14.4319 11.3594 14.5012 11.3594 14.6922V17.4506C11.3594 17.6416 11.3395 17.7109 11.3021 17.7807C11.2648 17.8506 11.21 17.9054 11.1401 17.9427C11.0703 17.9801 11.001 18 10.81 18H9.09003C8.61243 18 8.43924 17.9502 8.26464 17.8569C8.09003 17.7635 7.953 17.6265 7.85962 17.4519C7.76625 17.2773 7.71652 17.1041 7.71652 16.6265V14.6922C7.71652 14.5012 7.73641 14.4319 7.77376 14.3621C7.81111 14.2922 7.86592 14.2374 7.93577 14.2001C8.00561 14.1627 8.07488 14.1428 8.26592 14.1428H10.81ZM15.7385 14.1428C15.9296 14.1428 15.9989 14.1627 16.0687 14.2001C16.1385 14.2374 16.1934 14.2922 16.2307 14.3621C16.2681 14.4319 16.2879 14.5012 16.2879 14.6922V16.6189C16.2879 17.0956 16.2384 17.2685 16.1454 17.4429C16.0524 17.6173 15.9158 17.7543 15.7417 17.8479C15.5676 17.9414 15.3948 17.9915 14.9181 17.9929L13.075 17.9986C12.8646 17.9993 12.6891 17.8482 12.6522 17.6484L12.6451 17.5714C12.6451 17.571 12.6451 17.5705 12.6451 17.5701V14.6922C12.6451 14.5012 12.665 14.4319 12.7023 14.3621C12.7397 14.2922 12.7945 14.2374 12.8643 14.2001C12.9342 14.1627 13.0035 14.1428 13.1945 14.1428H15.7385ZM10.81 9.42855C11.001 9.42855 11.0703 9.44844 11.1401 9.48579C11.21 9.52314 11.2648 9.57795 11.3021 9.6478C11.3395 9.71764 11.3594 9.78691 11.3594 9.97795V12.3077C11.3594 12.4988 11.3395 12.568 11.3021 12.6379C11.2648 12.7077 11.21 12.7625 11.1401 12.7999C11.0703 12.8372 11.001 12.8571 10.81 12.8571H7.40878C7.21774 12.8571 7.14846 12.8372 7.07862 12.7999C7.00878 12.7625 6.95397 12.7077 6.91662 12.6379C6.87927 12.568 6.85938 12.4988 6.85938 12.3077V10.8021C6.85938 10.3245 6.9091 10.1513 7.00248 9.97667C7.09586 9.80206 7.23289 9.66503 7.40749 9.57165C7.5821 9.47828 7.75529 9.42855 8.23288 9.42855H10.81ZM15.7716 9.42855C16.2492 9.42855 16.4224 9.47828 16.597 9.57165C16.7716 9.66503 16.9086 9.80206 17.002 9.97667C17.0954 10.1513 17.1451 10.3245 17.1451 10.8021V12.3077C17.1451 12.4988 17.1252 12.568 17.0878 12.6379C17.0505 12.7077 16.9957 12.7625 16.9258 12.7999C16.856 12.8372 16.7867 12.8571 16.5957 12.8571H13.1945C13.0035 12.8571 12.9342 12.8372 12.8643 12.7999C12.7945 12.7625 12.7397 12.7077 12.7023 12.6379C12.665 12.568 12.6451 12.4988 12.6451 12.3077V9.97795C12.6451 9.78691 12.665 9.71764 12.7023 9.6478C12.7397 9.57795 12.7945 9.52314 12.8643 9.48579C12.9342 9.44844 13.0035 9.42855 13.1945 9.42855H15.7716ZM12.0022 8.5714C8.35937 8.5714 7.9308 6.21426 8.78795 5.35712C9.64509 4.49998 12.0022 4.92855 12.0022 8.5714ZM12.0022 8.5714C12.0022 4.92855 14.3594 4.49818 15.2165 5.35532C16.0737 6.21246 15.6451 8.5714 12.0022 8.5714Z" fill="white"/>
</svg>
